<?xml version="1.0" encoding="UTF-8" standalone="no"?>
<svg
   width="32"
   height="32"
   viewBox="0 0 32 32"
   version="1.1"
   id="svg5"
   sodipodi:docname="icon.svg"
   inkscape:version="1.1.2 (0a00cf5339, 2022-02-04)"
   xmlns:inkscape="http://www.inkscape.org/namespaces/inkscape"
   xmlns:sodipodi="http://sodipodi.sourceforge.net/DTD/sodipodi-0.dtd"
   xmlns="http://www.w3.org/2000/svg"
   xmlns:svg="http://www.w3.org/2000/svg">
  <sodipodi:namedview
     id="namedview10251"
     pagecolor="#ffffff"
     bordercolor="#666666"
     borderopacity="1.0"
     inkscape:pageshadow="2"
     inkscape:pageopacity="0.0"
     inkscape:pagecheckerboard="0"
     showgrid="false"
     inkscape:zoom="36.15625"
     inkscape:cx="16"
     inkscape:cy="16"
     inkscape:window-width="3440"
     inkscape:window-height="1403"
     inkscape:window-x="198"
     inkscape:window-y="0"
     inkscape:window-maximized="1"
     inkscape:current-layer="svg5" />
  <defs
     id="defs2" />
  <g
     id="layer1">
    <path
       id="path33"
       fill="currentColor"
       stroke="none"
       style="fill-rule:evenodd;stroke-width:1.29212"
       d="M 14.85124,0 A 8.8512404,7.9694918 0 0 0 6,7.9694918 8.8512404,7.9694918 0 0 0 14.85124,15.938984 8.8512404,7.9694918 0 0 0 18.279367,15.302358 L 23.496759,20 26,17.746128 21.239001,13.459413 A 8.8512404,7.9694918 0 0 0 23.702481,7.9694918 8.8512404,7.9694918 0 0 0 14.85124,0 Z m 0,1.992373 A 6.6384303,5.9771189 0 0 1 21.489671,7.9694918 6.6384303,5.9771189 0 0 1 14.85124,13.946611 6.6384303,5.9771189 0 0 1 8.21281,7.9694918 6.6384303,5.9771189 0 0 1 14.85124,1.992373 Z" />
    <g
       aria-label="{"
       transform="scale(0.70798024,1.4124688)"
       id="text6318"
       style="font-size:11.1725px;line-height:1.25;fill:currentColor;stroke-width:0.279314">
      <path
         d="m 18.439827,21.869801 v 0.785567 h -0.33823 q -1.358375,0 -1.822078,-0.403694 -0.458247,-0.403694 -0.458247,-1.60932 v -1.303822 q 0,-0.823754 -0.294587,-1.140162 -0.294588,-0.316409 -1.069243,-0.316409 H 14.124667 V 17.10185 h 0.332775 q 0.780111,0 1.069243,-0.310954 0.294587,-0.316408 0.294587,-1.129251 v -1.309278 q 0,-1.205626 0.458247,-1.603864 0.463703,-0.403694 1.822078,-0.403694 h 0.33823 v 0.780111 h -0.370962 q -0.7692,0 -1.003779,0.240034 -0.234579,0.240034 -0.234579,1.009235 v 1.35292 q 0,0.856485 -0.250945,1.243813 -0.24549,0.387328 -0.845575,0.523711 0.605541,0.147294 0.85103,0.534622 0.24549,0.387327 0.24549,1.238358 v 1.35292 q 0,0.7692 0.234579,1.009234 0.234579,0.240034 1.003779,0.240034 z"
         id="path10333" />
    </g>
    <g
       aria-label="{"
       transform="scale(-0.70798024,1.4124688)"
       id="text6318-7"
       style="font-size:11.1725px;line-height:1.25;fill:currentColor;stroke-width:0.279314">
      <path
         d="m -26.836885,21.869801 v 0.785567 h -0.33823 q -1.358375,0 -1.822077,-0.403694 -0.458247,-0.403694 -0.458247,-1.60932 v -1.303822 q 0,-0.823754 -0.294588,-1.140162 -0.294587,-0.316409 -1.069243,-0.316409 h -0.332774 V 17.10185 h 0.332774 q 0.780111,0 1.069243,-0.310954 0.294588,-0.316408 0.294588,-1.129251 v -1.309278 q 0,-1.205626 0.458247,-1.603864 0.463702,-0.403694 1.822077,-0.403694 h 0.33823 v 0.780111 h -0.370962 q -0.7692,0 -1.003779,0.240034 -0.234579,0.240034 -0.234579,1.009235 v 1.35292 q 0,0.856485 -0.250944,1.243813 -0.24549,0.387328 -0.845575,0.523711 0.60554,0.147294 0.85103,0.534622 0.245489,0.387327 0.245489,1.238358 v 1.35292 q 0,0.7692 0.234579,1.009234 0.234579,0.240034 1.003779,0.240034 z"
         id="path10336" />
    </g>
    <path
       id="path9971"
       style="fill:currentColor"
       d="M 17.5,24.5 A 1.5,1.5 0 0 1 16,26 1.5,1.5 0 0 1 14.5,24.5 1.5,1.5 0 0 1 16,23 a 1.5,1.5 0 0 1 1.5,1.5 z" />
  </g>
</svg>
